;TYPE=PLATED
;Layer: PTH_Through
;EasyEDA Pro v2.2.47.7, 2026-05-29 18:33:27
;Gerber Generator version 0.3
M48
METRIC,LZ,0000.00000
;Hole size 1 = 0.90000 METRIC
T01C0.90000
;Hole size 2 = 0.91440 METRIC
T02C0.91440
;Hole size 3 = 1.00000 METRIC
T03C1.00000
;Hole size 4 = 1.00000 METRIC
T04C1.00000
;Hole size 5 = 1.02000 METRIC
T05C1.02000
;Hole size 6 = 1.04999 METRIC
T06C1.04999
%
G05
G90
T01
X100.965Y7.493
X98.465Y7.493
X103.465Y7.493
T02
X-7.62Y31.369
X-8.636Y-51.943
X127.0Y-54.102
X127.635Y30.226
T03
X12.446Y-26.035
X12.446Y-23.495
X12.446Y-20.955
X12.446Y-18.415
X12.446Y-15.875
X12.446Y-13.335
X12.446Y-10.795
X12.446Y-8.255
X12.446Y-5.715
X12.446Y-3.175
X12.446Y-0.635
X12.446Y1.905
X12.446Y4.445
X12.446Y6.985
X12.446Y9.525
X37.592Y-26.289
X37.592Y-23.749
X37.592Y-21.209
X37.592Y-18.669
X37.592Y-16.129
X37.592Y-13.589
X37.592Y-11.049
X37.592Y-8.509
X37.592Y-5.969
X37.592Y-3.429
X37.592Y-0.889
X37.592Y1.651
X37.592Y4.191
X37.592Y6.731
X37.592Y9.271
T04
X113.665Y-5.642
X118.465Y-8.542
X113.665Y-11.942
T05
X11.43Y-46.252
X11.43Y-43.712
X13.97Y-46.252
X13.97Y-43.712
X12.192Y9.546
X12.192Y7.006
X12.192Y4.466
X12.192Y1.926
X12.192Y-0.614
X12.192Y-3.154
X12.192Y-5.694
X12.192Y-8.234
X12.192Y-10.774
X12.192Y-13.314
X12.192Y-15.854
X12.192Y-18.394
X12.192Y-20.934
X12.192Y-23.474
X12.192Y-26.014
X37.592Y9.546
X37.592Y7.006
X37.592Y4.466
X37.592Y1.926
X37.592Y-0.614
X37.592Y-3.154
X37.592Y-5.694
X37.592Y-8.234
X37.592Y-10.774
X37.592Y-13.314
X37.592Y-15.854
X37.592Y-18.394
X37.592Y-20.934
X37.592Y-23.474
X37.592Y-26.014
T06
X3.683Y-25.781
X3.683Y-23.241
X3.683Y-20.701
X3.683Y-18.161
X3.683Y-15.621
X3.683Y-13.081
X3.683Y-10.541
X3.683Y-8.001
X3.683Y-5.461
X3.683Y-2.921
X3.683Y-0.381
X3.683Y2.159
X3.683Y4.699
X3.683Y7.239
X3.683Y9.779
X43.815Y-25.908
X43.815Y-23.368
X43.815Y-20.828
X43.815Y-18.288
X43.815Y-15.748
X43.815Y-13.208
X43.815Y-10.668
X43.815Y-8.128
X43.815Y-5.588
X43.815Y-3.048
X43.815Y-0.508
X43.815Y2.032
X43.815Y4.572
X43.815Y7.112
X43.815Y9.652
X40.767Y-26.162
X40.767Y-23.622
X40.767Y-21.082
X40.767Y-18.542
X40.767Y-16.002
X40.767Y-13.462
X40.767Y-10.922
X40.767Y-8.382
X40.767Y-5.842
X40.767Y-3.302
X40.767Y-0.762
X40.767Y1.778
X40.767Y4.318
X40.767Y6.858
X40.767Y9.398
X8.382Y-26.162
X8.382Y-23.622
X8.382Y-21.082
X8.382Y-18.542
X8.382Y-16.002
X8.382Y-13.462
X8.382Y-10.922
X8.382Y-8.382
X8.382Y-5.842
X8.382Y-3.302
X8.382Y-0.762
X8.382Y1.778
X8.382Y4.318
X8.382Y6.858
X8.382Y9.398
M30